<mxfile host="app.diagrams.net" modified="2024-05-23T16:26:12.616Z" agent="Mozilla/5.0 (X11; Linux x86_64) AppleWebKit/537.36 (KHTML, like Gecko) Chrome/125.0.0.0 Safari/537.36" version="24.4.6" etag="V_bG0nuEMCDBmYAAGdP4" type="github">
  <diagram name="PÃ¡gina-1" id="L7_w-8w4dRuhKmzlwoGz">
    <mxGraphModel>
      <root>
        <mxCell id="0" />
        <mxCell id="1" parent="0" />
      </root>
    </mxGraphModel>
  </diagram>
</mxfile>
